HIERARCHY
ROOT Hips
{
	OFFSET -14.64140 90.27770 -84.91600
	CHANNELS 6 Xposition Yposition Zposition Zrotation Xrotation Yrotation
	JOINT Spine
	{
		OFFSET 0.00000 13.20850 -1.60440
		CHANNELS 3 Zrotation Xrotation Yrotation
		JOINT Spine1
		{
			OFFSET 0.00000 8.61720 0.00000
			CHANNELS 3 Zrotation Xrotation Yrotation
			JOINT Spine2
			{
				OFFSET 0.00000 8.61720 0.00000
				CHANNELS 3 Zrotation Xrotation Yrotation
				JOINT Spine3
				{
					OFFSET 0.00000 8.61720 0.00000
					CHANNELS 3 Zrotation Xrotation Yrotation
					JOINT Neck
					{
						OFFSET 0.00000 11.07920 1.10790
						CHANNELS 3 Zrotation Xrotation Yrotation
						JOINT Neck1
						{
							OFFSET 0.00000 7.08030 0.00000
							CHANNELS 3 Zrotation Xrotation Yrotation
							JOINT Head
							{
								OFFSET 0.00000 7.08030 0.00000
								CHANNELS 3 Zrotation Xrotation Yrotation
								End site
								{
									OFFSET 0.00000 0.00000 0.00000
								}
							}
						}
					}
					JOINT RightShoulder
					{
						OFFSET -0.01000 7.91370 5.19710
						CHANNELS 3 Zrotation Xrotation Yrotation
						JOINT RightArm
						{
							OFFSET -18.41580 0.00000 0.00000
							CHANNELS 3 Zrotation Xrotation Yrotation
							JOINT RightForeArm
							{
								OFFSET -29.11090 0.00000 0.00000
								CHANNELS 3 Zrotation Xrotation Yrotation
								JOINT RightHand
								{
									OFFSET -24.65040 0.00000 0.00000
									CHANNELS 3 Zrotation Xrotation Yrotation
									JOINT RightHandThumb1
									{
										OFFSET -5.35110 -0.85590 3.97910
										CHANNELS 3 Zrotation Xrotation Yrotation
										JOINT RightHandThumb2
										{
											OFFSET -4.52790 0.00000 0.00000
											CHANNELS 3 Zrotation Xrotation Yrotation
											JOINT RightHandThumb3
											{
												OFFSET -2.46980 0.00000 0.00000
												CHANNELS 3 Zrotation Xrotation Yrotation
												End site
												{
													OFFSET 0.00000 0.00000 0.00000
												}
											}
										}
									}
									JOINT RightHandIndex1
									{
										OFFSET -14.26970 0.00000 2.88140
										CHANNELS 3 Zrotation Xrotation Yrotation
										JOINT RightHandIndex2
										{
											OFFSET -5.48840 0.00000 0.00000
											CHANNELS 3 Zrotation Xrotation Yrotation
											JOINT RightHandIndex3
											{
												OFFSET -3.01860 0.00000 0.00000
												CHANNELS 3 Zrotation Xrotation Yrotation
												End site
												{
													OFFSET 0.00000 0.00000 0.00000
												}
											}
										}
									}
									JOINT RightHandMiddle1
									{
										OFFSET -14.26970 0.00000 -0.09150
										CHANNELS 3 Zrotation Xrotation Yrotation
										JOINT RightHandMiddle2
										{
											OFFSET -6.17440 0.00000 0.00000
											CHANNELS 3 Zrotation Xrotation Yrotation
											JOINT RightHandMiddle3
											{
												OFFSET -3.56740 0.00000 0.00000
												CHANNELS 3 Zrotation Xrotation Yrotation
												End site
												{
													OFFSET 0.00000 0.00000 0.00000
												}
											}
										}
									}
									JOINT RightHandRing1
									{
										OFFSET -12.69180 0.00000 -3.06430
										CHANNELS 3 Zrotation Xrotation Yrotation
										JOINT RightHandRing2
										{
											OFFSET -5.62560 0.00000 0.00000
											CHANNELS 3 Zrotation Xrotation Yrotation
											JOINT RightHandRing3
											{
												OFFSET -3.56740 0.00000 0.00000
												CHANNELS 3 Zrotation Xrotation Yrotation
												End site
												{
													OFFSET 0.00000 0.00000 0.00000
												}
											}
										}
									}
									JOINT RightHandPinky1
									{
										OFFSET -11.11390 0.00000 -6.03720
										CHANNELS 3 Zrotation Xrotation Yrotation
										JOINT RightHandPinky2
										{
											OFFSET -4.52790 0.00000 0.00000
											CHANNELS 3 Zrotation Xrotation Yrotation
											JOINT RightHandPinky3
											{
												OFFSET -2.46980 0.00000 0.00000
												CHANNELS 3 Zrotation Xrotation Yrotation
												End site
												{
													OFFSET 0.00000 0.00000 0.00000
												}
											}
										}
									}
								}
							}
						}
					}
					JOINT LeftShoulder
					{
						OFFSET 0.01000 7.91370 5.19710
						CHANNELS 3 Zrotation Xrotation Yrotation
						JOINT LeftArm
						{
							OFFSET 18.41580 0.00000 0.00000
							CHANNELS 3 Zrotation Xrotation Yrotation
							JOINT LeftForeArm
							{
								OFFSET 29.11090 0.00000 0.00000
								CHANNELS 3 Zrotation Xrotation Yrotation
								JOINT LeftHand
								{
									OFFSET 24.65040 0.00000 0.00000
									CHANNELS 3 Zrotation Xrotation Yrotation
									JOINT LeftHandThumb1
									{
										OFFSET 5.35110 -0.85590 3.97910
										CHANNELS 3 Zrotation Xrotation Yrotation
										JOINT LeftHandThumb2
										{
											OFFSET 4.52790 0.00000 0.00000
											CHANNELS 3 Zrotation Xrotation Yrotation
											JOINT LeftHandThumb3
											{
												OFFSET 2.46980 0.00000 0.00000
												CHANNELS 3 Zrotation Xrotation Yrotation
												End site
												{
													OFFSET 0.00000 0.00000 0.00000
												}
											}
										}
									}
									JOINT LeftHandIndex1
									{
										OFFSET 14.26970 0.00000 2.88140
										CHANNELS 3 Zrotation Xrotation Yrotation
										JOINT LeftHandIndex2
										{
											OFFSET 5.48840 0.00000 0.00000
											CHANNELS 3 Zrotation Xrotation Yrotation
											JOINT LeftHandIndex3
											{
												OFFSET 3.01860 0.00000 0.00000
												CHANNELS 3 Zrotation Xrotation Yrotation
												End site
												{
													OFFSET 0.00000 0.00000 0.00000
												}
											}
										}
									}
									JOINT LeftHandMiddle1
									{
										OFFSET 14.26970 0.00000 -0.09150
										CHANNELS 3 Zrotation Xrotation Yrotation
										JOINT LeftHandMiddle2
										{
											OFFSET 6.17440 0.00000 0.00000
											CHANNELS 3 Zrotation Xrotation Yrotation
											JOINT LeftHandMiddle3
											{
												OFFSET 3.56740 0.00000 0.00000
												CHANNELS 3 Zrotation Xrotation Yrotation
												End site
												{
													OFFSET 0.00000 0.00000 0.00000
												}
											}
										}
									}
									JOINT LeftHandRing1
									{
										OFFSET 12.69180 0.00000 -3.06430
										CHANNELS 3 Zrotation Xrotation Yrotation
										JOINT LeftHandRing2
										{
											OFFSET 5.62560 0.00000 0.00000
											CHANNELS 3 Zrotation Xrotation Yrotation
											JOINT LeftHandRing3
											{
												OFFSET 3.56740 0.00000 0.00000
												CHANNELS 3 Zrotation Xrotation Yrotation
												End site
												{
													OFFSET 0.00000 0.00000 0.00000
												}
											}
										}
									}
									JOINT LeftHandPinky1
									{
										OFFSET 11.11390 0.00000 -6.03720
										CHANNELS 3 Zrotation Xrotation Yrotation
										JOINT LeftHandPinky2
										{
											OFFSET 4.52790 0.00000 0.00000
											CHANNELS 3 Zrotation Xrotation Yrotation
											JOINT LeftHandPinky3
											{
												OFFSET 2.46980 0.00000 0.00000
												CHANNELS 3 Zrotation Xrotation Yrotation
												End site
												{
													OFFSET 0.00000 0.00000 0.00000
												}
											}
										}
									}
								}
							}
						}
					}
					JOINT pCube4
					{
						OFFSET 0.00000 10.91090 1.10790
						CHANNELS 3 Zrotation Xrotation Yrotation
						End site
						{
							OFFSET 0.00000 0.00000 0.00000
						}
					}
				}
			}
		}
	}
	JOINT RightUpLeg
	{
		OFFSET -9.98440 0.00000 0.00000
		CHANNELS 3 Zrotation Xrotation Yrotation
		JOINT RightLeg
		{
			OFFSET 0.00000 -42.11790 0.00000
			CHANNELS 3 Zrotation Xrotation Yrotation
			JOINT RightFoot
			{
				OFFSET 0.00000 -45.00020 -0.00000
				CHANNELS 3 Zrotation Xrotation Yrotation
				JOINT RightForeFoot
				{
					OFFSET 0.00000 -3.74820 0.00000
					CHANNELS 3 Zrotation Xrotation Yrotation
					JOINT RightToeBase
					{
						OFFSET 0.00000 0.06320 14.43120
						CHANNELS 3 Zrotation Xrotation Yrotation
						End site
						{
							OFFSET 0.00000 0.00000 0.00000
						}
					}
				}
			}
		}
	}
	JOINT LeftUpLeg
	{
		OFFSET 9.98440 0.00000 0.00000
		CHANNELS 3 Zrotation Xrotation Yrotation
		JOINT LeftLeg
		{
			OFFSET 0.00000 -42.11800 0.00000
			CHANNELS 3 Zrotation Xrotation Yrotation
			JOINT LeftFoot
			{
				OFFSET 0.00000 -45.00070 0.00000
				CHANNELS 3 Zrotation Xrotation Yrotation
				JOINT LeftForeFoot
				{
					OFFSET 0.00000 -3.74820 0.00000
					CHANNELS 3 Zrotation Xrotation Yrotation
					JOINT LeftToeBase
					{
						OFFSET 0.00000 0.06330 14.43110
						CHANNELS 3 Zrotation Xrotation Yrotation
						End site
						{
							OFFSET 0.00000 0.00000 0.00000
						}
					}
				}
			}
		}
	}
}
MOTION
Frames: 4
Frame Time: 0.050000
0.0 0.0 0.0 -0.0 0.0 -0.0 0.8065784690045884 1.870942718908775 -1.5706086913744397 -1.192061978513015 4.015361993126338 0.4821294612086882 -1.0391025784351695 -1.4381073505857065 -0.938469073059083 0.2768875257346465 0.0981669529691162 -0.70593175901389 -0.357315807395836 15.325271539084758 -0.17242289778365616 -0.13259525600856378 0.6152526995969161 -0.9560477289337815 -0.014710795864218732 -14.864133568224027 -0.04894534698086202 -12.097991141293045 6.265865742769318 -12.96842731250289 55.01759875619883 36.52625965377426 34.249282935100304 17.807908483857464 38.26821422910152 82.36237885324682 4.507918887738331 -0.5086151392368783 -3.415419991591721 7.402 0.1366 1.1948 0.0 0.0 -52.8735 -0.0 -0.0 -52.8735 -43.5518 0.0 0.0 -0.0 -0.0 -0.0 -0.0 -0.0 -0.0 -51.064 -0.0 0.0 -0.0 0.0 0.0 0.0 0.0 -0.0 -33.1153 0.0 -0.0 0.0 0.0 -0.0 -0.0 0.0 0.0 104.568 0.0 -0.0 125.482 0.0 -0.0 125.482 -0.0 -0.0 11.96459485028304 5.370672063678365 11.445829415033137 -35.29925924703032 45.264386059804906 -27.070086352846246 -13.528859692478191 -20.764942079890634 -97.16908728630806 2.489791477815081 -0.187117040385306 -3.7051528311793165 -13.9606 1.9849 -7.9316 0.0 0.0 44.5068 -0.0 0.0 44.5068 57.0533 0.0 0.0 -0.0 -0.0 -0.0 -0.0 -0.0 0.0 55.9265 0.0 -0.0 0.0 0.0 0.0 -0.0 0.0 -0.0 37.5571 0.0 -0.0 -0.0 -0.0 -0.0 0.0 0.0 0.0 -26.2296 0.0 -0.0 -31.4755 -0.0 -0.0 -31.4755 -0.0 0.0 0.0 0.0 -0.0 5.47 2.1382 -22.3439 0.0002 19.4596 0.0179 -7.5588 -21.4096 -1.9112 0.0 0.0 -0.0 0.0 4.1027 -0.0 14.6345 -3.5149 19.9819 -0.0 44.9992 0.0212 -11.6008 -13.3246 -5.0848 0.0 0.0 -0.0 0.0 -13.5769 -0.0
0.0 0.0 0.0 -0.0 0.0 -0.0 1.0650819645708671 1.907372221094147 -1.6490073441797881 -1.1798041119336113 4.010273203575886 0.47917736337836103 -1.010898785888067 -1.4128247659147606 -0.9250310140230195 0.28126249987243446 0.07583337647403934 -0.6876948096438086 -0.34965424353935215 15.318163168325366 -0.2166832765435712 -0.13284547267824207 0.5800231583411436 -0.9070245418069889 -0.005302955208791806 -14.941705580979388 -0.04426946211173103 -12.17821111599239 6.345306019745525 -13.057188195471223 55.6395678767519 36.443260447954074 34.4436221225705 17.417026534676545 39.9141561222617 82.43496781442164 4.215454393258036 -0.5025606162739388 -3.5494540388221725 7.402 0.1366 1.1948 0.0 0.0 -52.8735 -0.0 -0.0 -52.8735 -43.5518 0.0 0.0 -0.0 -0.0 -0.0 -0.0 -0.0 -0.0 -51.064 -0.0 0.0 -0.0 0.0 0.0 0.0 0.0 -0.0 -33.1153 0.0 -0.0 0.0 0.0 -0.0 -0.0 0.0 0.0 104.568 0.0 -0.0 125.482 0.0 -0.0 125.482 -0.0 -0.0 12.046484503506075 5.414786220582404 11.445472028901797 -35.442122288010914 45.5644287697083 -26.834368120961873 -13.225972511079158 -21.510384259635828 -96.9936047586519 2.077879162276624 -0.16942536709822237 -3.7600968467391453 -13.9606 1.9849 -7.9316 0.0 0.0 44.5068 -0.0 0.0 44.5068 57.0533 0.0 0.0 -0.0 -0.0 -0.0 -0.0 -0.0 0.0 55.9265 0.0 -0.0 0.0 0.0 0.0 -0.0 0.0 -0.0 37.5571 0.0 -0.0 -0.0 -0.0 -0.0 0.0 0.0 0.0 -26.2296 0.0 -0.0 -31.4755 -0.0 -0.0 -31.4755 -0.0 0.0 0.0 0.0 -0.0 5.47 2.1382 -22.3439 0.0002 19.4596 0.0179 -7.5588 -21.4096 -1.9112 0.0 0.0 -0.0 0.0 4.1027 -0.0 14.6345 -3.5149 19.9819 -0.0 44.9992 0.0212 -11.6008 -13.3246 -5.0848 0.0 0.0 -0.0 0.0 -13.5769 -0.0
0.0 0.0 0.0 -0.0 0.0 -0.0 1.299150532177512 1.9714790686609578 -1.7194602135538943 -1.1681834609694313 3.9965022632092615 0.4768978654177041 -0.98308703555613 -1.3809871026179374 -0.9128010578642495 0.27911782144679725 0.04783454841880591 -0.6712327394714313 -0.34752849950047576 15.26693469052063 -0.2486997374047422 -0.13338723873608482 0.5430491824075601 -0.8579794419093497 -0.0013518580142631873 -15.01003247901483 -0.040726833857935976 -12.220217882519892 6.408044804913098 -13.13350460525488 56.33647565632742 36.28289370829175 34.87786800508179 16.721343138955987 40.90132064735426 82.27293892592428 3.861155054670071 -0.4809473984923409 -3.617106488922613 7.402 0.1366 1.1948 0.0 0.0 -52.8735 -0.0 -0.0 -52.8735 -43.5518 0.0 0.0 -0.0 -0.0 -0.0 -0.0 -0.0 -0.0 -51.064 -0.0 0.0 -0.0 0.0 0.0 0.0 0.0 -0.0 -33.1153 0.0 -0.0 0.0 0.0 -0.0 -0.0 0.0 0.0 104.568 0.0 -0.0 125.482 0.0 -0.0 125.482 -0.0 -0.0 12.099243824577426 5.447915978065777 11.439942480275967 -35.7553224977565 45.6105699972124 -26.853725172407376 -12.718759350744323 -21.98483572205526 -96.43501869539882 1.4985035023195232 -0.16484807788999015 -3.59900399733386 -13.9606 1.9849 -7.9316 0.0 0.0 44.5068 -0.0 0.0 44.5068 57.0533 0.0 0.0 -0.0 -0.0 -0.0 -0.0 -0.0 0.0 55.9265 0.0 -0.0 0.0 0.0 0.0 -0.0 0.0 -0.0 37.5571 0.0 -0.0 -0.0 -0.0 -0.0 0.0 0.0 0.0 -26.2296 0.0 -0.0 -31.4755 -0.0 -0.0 -31.4755 -0.0 0.0 0.0 0.0 -0.0 5.47 2.1382 -22.3439 0.0002 19.4596 0.0179 -7.5588 -21.4096 -1.9112 0.0 0.0 -0.0 0.0 4.1027 -0.0 14.6345 -3.5149 19.9819 -0.0 44.9992 0.0212 -11.6008 -13.3246 -5.0848 0.0 0.0 -0.0 0.0 -13.5769 -0.0
0.0 0.0 0.0 -0.0 0.0 -0.0 1.4727911458812177 2.0222846312797493 -1.7790294164205218 -1.1605700041586957 3.990607717286279 0.4754131739398214 -0.9645202125631541 -1.3597784374524795 -0.8992729429188284 0.2746427043920132 0.01900951912389708 -0.6554787178534791 -0.3267347910522182 15.238757853743243 -0.31477495042196907 -0.1264118271358244 0.5102112756036576 -0.8916208783674727 0.01620784686587849 -15.07964306096617 -0.040267347339620535 -12.296076931644409 6.483592641848049 -13.234064371152126 56.9580691879996 35.87177127002012 35.21559027820766 15.988661006786314 40.943943478829475 82.12729575716422 3.7040756930824275 -0.4606644054640977 -3.5839154402415065 7.402 0.1366 1.1948 0.0 0.0 -52.8735 -0.0 -0.0 -52.8735 -43.5518 0.0 0.0 -0.0 -0.0 -0.0 -0.0 -0.0 -0.0 -51.064 -0.0 0.0 -0.0 0.0 0.0 0.0 0.0 -0.0 -33.1153 0.0 -0.0 0.0 0.0 -0.0 -0.0 0.0 0.0 104.568 0.0 -0.0 125.482 0.0 -0.0 125.482 -0.0 -0.0 12.16561439506529 5.49343163092953 11.474428048710843 -36.16725896715597 45.404636203324564 -26.921150121555005 -12.17059399404293 -21.85813854831782 -95.80979467194766 0.9771021426361151 -0.16247790110469845 -3.4589820831963976 -13.9606 1.9849 -7.9316 0.0 0.0 44.5068 -0.0 0.0 44.5068 57.0533 0.0 0.0 -0.0 -0.0 -0.0 -0.0 -0.0 0.0 55.9265 0.0 -0.0 0.0 0.0 0.0 -0.0 0.0 -0.0 37.5571 0.0 -0.0 -0.0 -0.0 -0.0 0.0 0.0 0.0 -26.2296 0.0 -0.0 -31.4755 -0.0 -0.0 -31.4755 -0.0 0.0 0.0 0.0 -0.0 5.47 2.1382 -22.3439 0.0002 19.4596 0.0179 -7.5588 -21.4096 -1.9112 0.0 0.0 -0.0 0.0 4.1027 -0.0 14.6345 -3.5149 19.9819 -0.0 44.9992 0.0212 -11.6008 -13.3246 -5.0848 0.0 0.0 -0.0 0.0 -13.5769 -0.0
